<?xml version="1.0" encoding="UTF-8" standalone="no"?>
<!-- Generator: Adobe Illustrator 19.0.0, SVG Export Plug-In . SVG Version: 6.00 Build 0)  -->

<svg
   xmlns:dc="http://purl.org/dc/elements/1.1/"
   xmlns:cc="http://creativecommons.org/ns#"
   xmlns:rdf="http://www.w3.org/1999/02/22-rdf-syntax-ns#"
   xmlns:svg="http://www.w3.org/2000/svg"
   xmlns="http://www.w3.org/2000/svg"
   xmlns:sodipodi="http://sodipodi.sourceforge.net/DTD/sodipodi-0.dtd"
   xmlns:inkscape="http://www.inkscape.org/namespaces/inkscape"
   version="1.1"
   id="Layer_1"
   x="0px"
   y="0px"
   viewBox="0 0 512.662 512.662"
   style="enable-background:new 0 0 512.662 512.662;"
   xml:space="preserve"
   sodipodi:docname="flame-updated.svg"
   inkscape:version="0.92.1 r15371"><metadata
   id="metadata3721"><rdf:RDF><cc:Work
       rdf:about=""><dc:format>image/svg+xml</dc:format><dc:type
         rdf:resource="http://purl.org/dc/dcmitype/StillImage" /><dc:title></dc:title></cc:Work></rdf:RDF></metadata><defs
   id="defs3719" /><sodipodi:namedview
   pagecolor="#ffffff"
   bordercolor="#666666"
   borderopacity="1"
   objecttolerance="10"
   gridtolerance="10"
   guidetolerance="10"
   inkscape:pageopacity="0"
   inkscape:pageshadow="2"
   inkscape:window-width="1366"
   inkscape:window-height="705"
   id="namedview3717"
   showgrid="false"
   inkscape:zoom="1.0182148"
   inkscape:cx="89.863164"
   inkscape:cy="256.33099"
   inkscape:window-x="-8"
   inkscape:window-y="-8"
   inkscape:window-maximized="1"
   inkscape:current-layer="Layer_1" />
<path
   style="fill:#F0C419;"
   d="M358.29,470.51l-4.414,4.414c-55.614,50.317-139.476,50.317-195.09,0l-4.414-4.414  c-70.621-63.559-87.393-166.841-41.49-249.821L224.11,18.538c14.124-24.717,49.434-24.717,63.559,0l112.11,202.152  C445.683,303.669,428.91,406.952,358.29,470.51"
   id="path3680" />
<path
   style="fill:#E57E25;"
   d="M227.641,507.586c-8.828-3.531-17.655-8.828-24.717-15.007l-4.414-3.531  c-45.903-42.372-56.497-109.462-26.483-163.31l68.855-123.586c6.179-10.593,21.186-10.593,27.366,0l68.855,123.586  c30.014,53.848,18.538,121.821-27.366,162.428l-4.414,4.414C284.138,511.117,255.007,517.297,227.641,507.586"
   id="path3682" />
<path
   style="fill:#AC5F1C;"
   d="M255.89,512c-2.648,0-4.414,0-7.062-0.883s-5.297-2.648-7.945-5.297l-4.414-3.531  c-27.366-24.717-34.428-64.441-15.89-97.103l27.366-57.379c2.648-5.297,9.71-5.297,12.359,0l30.897,57.379  c17.655,32.662,11.476,72.386-15.89,97.103l-4.414,4.414C266.483,510.234,261.186,512,255.89,512"
   id="path3684" />
<g
   id="g3686">
</g>
<g
   id="g3688">
</g>
<g
   id="g3690">
</g>
<g
   id="g3692">
</g>
<g
   id="g3694">
</g>
<g
   id="g3696">
</g>
<g
   id="g3698">
</g>
<g
   id="g3700">
</g>
<g
   id="g3702">
</g>
<g
   id="g3704">
</g>
<g
   id="g3706">
</g>
<g
   id="g3708">
</g>
<g
   id="g3710">
</g>
<g
   id="g3712">
</g>
<g
   id="g3714">
</g>
<path
   style="fill:#ff6e00;stroke-width:0.9821111;fill-opacity:1"
   d="m 276.46427,508.75357 c 15.09301,-4.93784 25.6355,-12.00317 39.41026,-26.41183 18.23197,-19.07097 28.04614,-36.83861 34.54704,-62.54417 2.42866,-9.6033 2.61482,-11.81782 2.56297,-30.48874 -0.0534,-19.25445 -0.18714,-20.62627 -3.06253,-31.42755 -1.65364,-6.21185 -4.74888,-15.27183 -6.87831,-20.13328 -2.12942,-4.86145 -19.87747,-37.56575 -39.44012,-72.67622 -25.39166,-45.57222 -36.57288,-64.73813 -39.07899,-66.98596 -7.01978,-6.29632 -18.08938,-4.72051 -23.23412,3.30747 -6.41247,10.00621 -72.26376,129.60029 -75.58617,137.27384 -7.84973,18.13001 -11.06242,35.93655 -10.26682,56.9044 0.55795,14.70454 2.10261,23.68987 6.26766,36.45914 11.2758,34.56949 39.23078,66.06597 67.6178,76.18403 7.28791,2.59765 2.17562,2.27561 -8.68945,-0.54737 -17.83879,-4.6349 -36.58777,-13.54617 -50.23722,-23.87741 -16.63061,-12.58767 -37.04256,-34.24491 -48.71609,-51.68816 -7.16404,-10.7049 -19.41111,-35.35031 -22.973283,-46.23031 -7.946124,-24.26997 -10.719106,-41.45091 -10.69953,-66.2925 0.02048,-25.99494 3.879186,-47.65577 12.693843,-71.25692 5.25998,-14.08354 5.03026,-13.65009 67.57196,-127.49489 38.45675,-70.002921 58.5061,-105.533647 61.35931,-108.73877 2.67545,-3.0054341 6.65084,-5.9485986 10.78222,-7.9825819 5.93269,-2.9208183 7.37376,-3.22188812 15.42157,-3.22188812 8.00229,0 9.50487,0.30942792 15.24372,3.13916062 3.50152,1.7265384 8.21101,5.0411633 10.46554,7.3658334 2.96308,3.055254 19.80033,32.53454 60.75167,106.366226 31.15888,56.17675 58.7586,106.33808 61.33269,111.46961 14.29836,28.50419 21.09629,58.09769 20.98088,91.33633 -0.11052,31.83029 -5.82911,57.41263 -19.0513,85.22673 -12.78199,26.8881 -28.22796,47.35597 -51.16717,67.80294 -12.71807,11.33632 -21.77596,17.48467 -35.69725,24.23076 -15.30903,7.41857 -36.01184,13.36783 -46.02219,13.22518 -2.41386,-0.0344 -1.59062,-0.53231 3.79141,-2.2931 z"
   id="path3723"
   inkscape:connector-curvature="0" /><path
   style="fill:#ff9600;fill-opacity:1;stroke-width:0.9821111"
   d="m 247.68842,510.22865 c -5.45221,-2.49947 -17.45623,-13.90963 -23.12351,-21.97954 -5.51708,-7.85604 -10.33453,-18.8682 -12.28984,-28.0932 -2.92305,-13.79071 -1.30119,-32.68651 3.86572,-45.0382 4.45661,-10.6537 32.13212,-67.49718 33.71299,-69.24402 2.18488,-2.41427 6.42018,-2.18935 8.80848,0.46778 3.53937,3.93778 35.49973,64.83895 38.01095,72.4307 9.99326,30.21099 2.07099,60.7813 -21.6724,83.62906 -9.56365,9.20291 -18.63873,11.80371 -27.31239,7.82742 z"
   id="path4530"
   inkscape:connector-curvature="0" /><path
   style="fill:#ffa600;fill-opacity:1;stroke-width:0.9821111"
   d="m 242.12069,511.06787 c -17.05186,-2.8775 -30.398,-10.14468 -45.82806,-24.95407 -15.55636,-14.93063 -27.13125,-33.20943 -33.96707,-53.64006 -5.43696,-16.24981 -6.75498,-26.05226 -6.19999,-46.11124 0.41677,-15.06354 0.84729,-18.61721 3.48471,-28.76358 1.7283,-6.64889 5.05194,-15.84594 7.80817,-21.60644 5.629,-11.76458 73.33041,-133.90556 75.70322,-136.57716 4.0331,-4.54096 13.10704,-6.03907 18.78716,-3.10176 3.59599,1.85956 8.44982,9.95881 41.79489,69.74033 40.05249,71.80667 43.95985,80.00456 47.78214,100.24995 1.95377,10.34849 1.69142,39.26479 -0.44627,49.18739 -5.50519,25.55367 -16.5389,46.61435 -34.41477,65.68946 -13.17199,14.05566 -24.6784,22.07133 -37.87478,26.38456 -8.07147,2.63816 -17.50106,4.4781 -12.89257,2.51566 3.56958,-1.52005 17.19856,-15.23138 21.80341,-21.93517 13.97312,-20.34222 17.29652,-47.78367 8.65472,-71.46272 -2.35145,-6.44312 -8.61395,-18.54861 -24.83095,-47.99852 -1.63595,-2.97088 -4.29999,-8.05331 -5.92008,-11.29428 -5.652,-11.30672 -7.24569,-13.2585 -10.82598,-13.2585 -1.78055,0 -3.98207,0.55244 -4.89226,1.22764 -0.9102,0.67521 -6.89346,12.49737 -13.29614,26.27148 -6.40269,13.7741 -13.86666,29.34004 -16.58661,34.59098 -7.1811,13.8633 -9.50379,23.0439 -9.51133,37.59418 -0.007,13.4239 2.04171,22.4795 7.80074,34.48124 5.94199,12.38301 19.15114,27.06874 28.74786,31.96142 3.82491,1.95005 2.84413,2.11268 -4.88016,0.80921 z"
   id="path4532"
   inkscape:connector-curvature="0" /></svg>
